<?xml version="1.0" encoding="UTF-8"?><svg xmlns="http://www.w3.org/2000/svg" xmlns:xlink="http://www.w3.org/1999/xlink" fill-opacity="1" color-rendering="auto" color-interpolation="auto" text-rendering="auto" stroke="black" stroke-linecap="square" width="768" stroke-miterlimit="10" shape-rendering="auto" stroke-opacity="1" fill="black" stroke-dasharray="none" font-weight="normal" stroke-width="1" height="398" font-family="'Dialog'" font-style="normal" stroke-linejoin="miter" font-size="12px" stroke-dashoffset="0" image-rendering="auto">
  <!--Generated by ySVG 2.6-->
  <defs id="genericDefs"/>
  <g>
    <defs id="defs1">
      <clipPath clipPathUnits="userSpaceOnUse" id="clipPath1">
        <path d="M0 0 L768 0 L768 398 L0 398 L0 0 Z"/>
      </clipPath>
      <clipPath clipPathUnits="userSpaceOnUse" id="clipPath2">
        <path d="M625 -278 L1393 -278 L1393 120 L625 120 L625 -278 Z"/>
      </clipPath>
    </defs>
    <g fill="white" text-rendering="geometricPrecision" shape-rendering="geometricPrecision" transform="translate(-625,278)" stroke="white">
      <rect x="625" width="768" height="398" y="-278" clip-path="url(#clipPath2)" stroke="none"/>
    </g>
    <g fill="rgb(245,245,245)" text-rendering="geometricPrecision" shape-rendering="geometricPrecision" transform="matrix(1,0,0,1,-625,278)" stroke="rgb(245,245,245)">
      <rect x="640.7803" y="-262.8076" clip-path="url(#clipPath2)" width="321.25" rx="4" ry="4" height="367.5" stroke="none"/>
      <rect x="640.7803" y="-262.8076" clip-path="url(#clipPath2)" fill="rgb(235,235,235)" width="321.25" height="24.4301" stroke="none"/>
    </g>
    <g font-size="15px" stroke-linecap="butt" transform="matrix(1,0,0,1,-625,278)" text-rendering="geometricPrecision" font-family="sans-serif" shape-rendering="geometricPrecision" stroke-miterlimit="1.45">
      <text x="811.7692" xml:space="preserve" y="-244.7725" clip-path="url(#clipPath2)" stroke="none">Клиентская сторона</text>
      <rect x="640.7803" y="-262.8076" clip-path="url(#clipPath2)" fill="none" width="321.25" stroke-dasharray="6,2" rx="4" ry="4" height="367.5"/>
    </g>
    <g fill="rgb(245,245,245)" text-rendering="geometricPrecision" shape-rendering="geometricPrecision" transform="matrix(1,0,0,1,-625,278)" stroke="rgb(245,245,245)">
      <rect x="1056.5605" y="-262.8076" clip-path="url(#clipPath2)" width="321.25" rx="4" ry="4" height="367.5" stroke="none"/>
      <rect x="1056.5605" y="-262.8076" clip-path="url(#clipPath2)" fill="rgb(235,235,235)" width="321.25" height="24.4301" stroke="none"/>
    </g>
    <g font-size="15px" stroke-linecap="butt" transform="matrix(1,0,0,1,-625,278)" text-rendering="geometricPrecision" font-family="sans-serif" shape-rendering="geometricPrecision" stroke-miterlimit="1.45">
      <text x="1232.3795" xml:space="preserve" y="-244.7725" clip-path="url(#clipPath2)" stroke="none">Серверная сторона</text>
      <rect x="1056.5605" y="-262.8076" clip-path="url(#clipPath2)" fill="none" width="321.25" stroke-dasharray="6,2" rx="4" ry="4" height="367.5"/>
      <path fill="none" d="M962.0176 -79.0576 L1048.5531 -79.0576" clip-path="url(#clipPath2)"/>
      <path d="M1056.5531 -79.0576 L1044.5531 -84.0576 L1047.5531 -79.0576 L1044.5531 -74.0576 Z" stroke="none" clip-path="url(#clipPath2)"/>
      <path fill="none" d="M1056.5731 -79.0576 L970.0377 -79.0576" clip-path="url(#clipPath2)"/>
      <path d="M962.0377 -79.0576 L974.0377 -74.0576 L971.0377 -79.0576 L974.0377 -84.0576 Z" stroke="none" clip-path="url(#clipPath2)"/>
    </g>
  </g>
</svg>
